<?xml version="1.0" encoding="UTF-8"?><svg id="Layer_1" xmlns="http://www.w3.org/2000/svg" viewBox="0 0 1140 292"><defs><style>.cls-1{fill:#3c91c8;}</style></defs><path class="cls-1" d="m261.25,184.6l21.28-77.5h18.82l21.28,77.5h-8.51l-5.6-19.94h-33.15l-5.6,19.94h-8.51Zm27.78-70.11l-11.76,42.45h29.34l-11.76-42.45h-5.82Z"/><path class="cls-1" d="m359.36,158.5h-19.71v26.1h-8.62v-77.5h28.34c8.44,0,14.67,2.05,18.7,6.16,4.03,4.11,6.05,10.38,6.05,18.82,0,17.62-8.25,26.43-24.75,26.43Zm-19.71-7.62h19.6c10.68,0,16.02-6.27,16.02-18.82,0-5.97-1.27-10.36-3.81-13.16-2.54-2.8-6.61-4.2-12.21-4.2h-19.6v36.18Z"/><path class="cls-1" d="m421.97,158.5h-19.71v26.1h-8.62v-77.5h28.34c8.44,0,14.67,2.05,18.7,6.16,4.03,4.11,6.05,10.38,6.05,18.82,0,17.62-8.25,26.43-24.75,26.43Zm-19.71-7.62h19.6c10.68,0,16.02-6.27,16.02-18.82,0-5.97-1.27-10.36-3.81-13.16-2.54-2.8-6.61-4.2-12.21-4.2h-19.6v36.18Z"/><path class="cls-1" d="m464.86,154.92v29.68h-8.62v-77.5h28.67c8.21,0,14.39,1.9,18.54,5.71,4.14,3.81,6.22,9.74,6.22,17.81,0,11.95-4.74,19.45-14.22,22.51l14.9,31.47h-9.52l-14-29.68h-21.95Zm20.16-7.62c10.53,0,15.79-5.43,15.79-16.3s-5.3-16.3-15.9-16.3h-20.05v32.59h20.16Z"/><path class="cls-1" d="m579.55,146.41c0,13.81-2.2,23.82-6.61,30.02-4.41,6.2-12.41,9.3-24.02,9.3s-19.62-3.17-24.02-9.52c-4.41-6.34-6.61-16.33-6.61-29.96s2.24-23.74,6.72-30.35c4.48-6.61,12.43-9.91,23.86-9.91s19.39,3.29,23.91,9.86c4.52,6.57,6.78,16.76,6.78,30.58Zm-52.42-.22c0,11.35,1.49,19.51,4.48,24.47,2.99,4.97,8.75,7.45,17.3,7.45s14.3-2.43,17.25-7.28c2.95-4.85,4.42-12.99,4.42-24.42s-1.53-19.75-4.59-24.98c-3.06-5.23-8.79-7.84-17.19-7.84s-14.11,2.59-17.14,7.78c-3.02,5.19-4.54,13.46-4.54,24.81Z"/><path class="cls-1" d="m583.36,184.6l21.28-77.5h18.82l21.28,77.5h-8.51l-5.6-19.94h-33.15l-5.6,19.94h-8.51Zm27.78-70.11l-11.76,42.45h29.34l-11.76-42.45h-5.82Z"/><path class="cls-1" d="m698.6,183.37c-7.69,1.57-14.6,2.35-20.72,2.35s-11.07-.84-14.84-2.52c-3.77-1.68-6.68-4.29-8.74-7.84-2.05-3.54-3.47-7.62-4.26-12.21s-1.18-10.32-1.18-17.19.39-12.64,1.18-17.3c.78-4.67,2.2-8.79,4.26-12.38,2.05-3.58,4.95-6.2,8.68-7.84,3.73-1.64,8.59-2.46,14.56-2.46s12.99.82,21.06,2.46l-.34,7.28c-7.54-1.34-14.26-2.02-20.16-2.02-8.21,0-13.65,2.45-16.3,7.34-2.65,4.89-3.98,13.23-3.98,25.03,0,5.9.24,10.64.73,14.22.48,3.58,1.44,6.81,2.86,9.69,1.42,2.88,3.49,4.93,6.22,6.16,2.72,1.23,6.72,1.85,11.98,1.85s11.48-.67,18.65-2.02l.34,7.39Z"/><path class="cls-1" d="m756.95,184.6v-35.06h-39.42v35.06h-8.62v-77.5h8.62v34.72h39.42v-34.72h8.51v77.5h-8.51Z"/><path class="cls-1" d="m848.34,183.37c-7.69,1.57-14.6,2.35-20.72,2.35s-11.07-.84-14.84-2.52c-3.77-1.68-6.68-4.29-8.74-7.84-2.05-3.54-3.47-7.62-4.26-12.21s-1.18-10.32-1.18-17.19.39-12.64,1.18-17.3c.78-4.67,2.2-8.79,4.26-12.38,2.05-3.58,4.95-6.2,8.68-7.84,3.73-1.64,8.59-2.46,14.56-2.46s12.99.82,21.06,2.46l-.34,7.28c-7.54-1.34-14.26-2.02-20.16-2.02-8.21,0-13.65,2.45-16.3,7.34-2.65,4.89-3.98,13.23-3.98,25.03,0,5.9.24,10.64.73,14.22.48,3.58,1.44,6.81,2.86,9.69,1.42,2.88,3.49,4.93,6.22,6.16,2.72,1.23,6.72,1.85,11.98,1.85s11.48-.67,18.65-2.02l.34,7.39Z"/><path class="cls-1" d="m883.62,184.6h-8.62v-32.59l-24.75-44.91h9.74l19.26,36.29,19.26-36.29h9.74l-24.64,44.91v32.59Z"/><path class="cls-1" d="m915.09,107.1h28.11c7.69,0,13.46,1.59,17.3,4.76,3.84,3.17,5.77,8.16,5.77,14.95,0,4.85-.84,8.64-2.52,11.37-1.68,2.73-4.16,4.87-7.45,6.44,8.21,2.84,12.32,8.92,12.32,18.26,0,7.77-2.05,13.33-6.16,16.69-4.11,3.36-10.04,5.04-17.81,5.04h-29.57v-77.5Zm27.78,7.62h-19.15v26.77h19.94c4.78,0,8.27-1.14,10.47-3.42,2.2-2.28,3.3-5.71,3.3-10.3s-1.18-7.91-3.53-9.97c-2.35-2.05-6.03-3.08-11.03-3.08Zm.9,34.27h-20.05v28h20.61c5.08,0,8.94-1.06,11.59-3.19,2.65-2.13,3.98-5.88,3.98-11.26,0-2.84-.54-5.22-1.62-7.17-1.08-1.94-2.52-3.32-4.31-4.14-3.29-1.49-6.68-2.24-10.19-2.24Z"/><path class="cls-1" d="m980.28,184.6v-77.5h47.15v7.62h-38.53v26.77h31.81v7.5h-31.81v28h38.53v7.62h-47.15Z"/><path class="cls-1" d="m1047.03,154.92v29.68h-8.62v-77.5h28.67c8.21,0,14.39,1.9,18.54,5.71,4.14,3.81,6.22,9.74,6.22,17.81,0,11.95-4.74,19.45-14.22,22.51l14.9,31.47h-9.52l-14-29.68h-21.95Zm20.16-7.62c10.53,0,15.79-5.43,15.79-16.3s-5.3-16.3-15.9-16.3h-20.05v32.59h20.16Z"/><path class="cls-1" d="m45.93,49.36v193.29h14.76s11.63-77.7,72.93-193.29H45.93Z"/><path class="cls-1" d="m172.55,49.36s-17.9,11.04-26.4,33.41c0,0,15.21-11.19,29.53-14.77,0,0,33.56,43.7,55.48,174.65h14.77V49.36h-73.38Z"/><path class="cls-1" d="m90.23,242.64h53.69c-23.71-50.41-28.64-106.64-28.64-106.64-28.63,35.35-25.05,106.64-25.05,106.64Z"/></svg>
